<?xml version="1.0" encoding="utf-8"?>
<!-- Generator: Adobe Illustrator 23.0.2, SVG Export Plug-In . SVG Version: 6.00 Build 0)  -->
<svg version="1.1" id="Layer_1" xmlns="http://www.w3.org/2000/svg" xmlns:xlink="http://www.w3.org/1999/xlink" x="0px" y="0px"
	 viewBox="400.3 202 27.9 31.5" style="enable-background:new 400.3 202 27.9 31.5;" xml:space="preserve">
<path d="M414.4,217.1c-4,0-7.3-3.4-7.3-7.6s3.3-7.6,7.3-7.6s7.3,3.4,7.3,7.6S418.4,217.1,414.4,217.1z M414.4,204
	c-2.9,0-5.3,2.5-5.3,5.6s2.4,5.6,5.3,5.6s5.3-2.5,5.3-5.6S417.3,204,414.4,204z"/>
<path d="M412.9,233.4c-0.7,0-1.2,0-1.4,0c-10.4-0.2-10.8-1.9-11-2.6l0,0c-0.4-1.4,0.3-3.4,1.7-5.3c2.2-2.9,6.6-5.9,12.1-5.9
	c5.7,0,10.1,3.3,12.3,6.1c1.4,1.9,2,3.7,1.5,5.1C427.4,233.2,416.9,233.4,412.9,233.4z M402.4,230.2c1.8,1.7,21.2,1.6,23.8-0.1
	c0.1-0.6-0.2-1.8-1.3-3.2c-1.8-2.5-5.7-5.3-10.7-5.3c-4.8,0-8.7,2.8-10.5,5.2C402.7,228,402.2,229.4,402.4,230.2z M402.3,230.1
	L402.3,230.1z"/>
</svg>
