<?xml version="1.0" encoding="utf-8"?>
<!-- Generator: Adobe Illustrator 23.0.2, SVG Export Plug-In . SVG Version: 6.00 Build 0)  -->
<svg version="1.1" id="Layer_1" xmlns="http://www.w3.org/2000/svg" xmlns:xlink="http://www.w3.org/1999/xlink" x="0px" y="0px"
	 viewBox="399.8 201.3 30.9 30.4" style="enable-background:new 399.8 201.3 30.9 30.4;" xml:space="preserve">
<path d="M413.7,229.3c-7.7,0-14-6.3-14-14c0-7.7,6.3-14,14-14c7.7,0,14,6.3,14,14C427.7,223,421.5,229.3,413.7,229.3z M413.7,203.3
	c-6.6,0-12,5.4-12,12c0,6.6,5.4,12,12,12c6.6,0,12-5.4,12-12C425.7,208.7,420.4,203.3,413.7,203.3z"/>
<path d="M429.7,231.7c-0.2,0-0.5-0.1-0.7-0.3l-6.7-6.1c-0.4-0.4-0.4-1-0.1-1.4c0.4-0.4,1-0.4,1.4-0.1l6.7,6.1c0.4,0.4,0.4,1,0.1,1.4
	C430.2,231.6,430,231.7,429.7,231.7z"/>
</svg>
